<mxfile host="app.diagrams.net" modified="2023-09-04T05:36:53.186Z" agent="Mozilla/5.0 (Macintosh; Intel Mac OS X 10_15_7) AppleWebKit/537.36 (KHTML, like Gecko) Chrome/116.0.0.0 Safari/537.36" version="21.7.2" etag="H1jk3sZW8ezgpZAZ3dx7" type="github">
  <diagram name="Page-1" id="Ys4n2IFVDx7MFp22J36N">
    <mxGraphModel>
      <root>
        <mxCell id="0" />
        <mxCell id="1" parent="0" />
      </root>
    </mxGraphModel>
  </diagram>
</mxfile>
